# xmcd
#
# Track frame offsets:
#	150
#	15183
#	29398
#	46910
#	63308
#	76040
#	92365
#	105373
#	120488
#	134083
#	151143
#	168565
#	185680
#	201763
#
# Disc length: 2905 seconds
#
# Revision: 2
# Processed by: cddbd v1.5.2PL0 Copyright (c) Steve Scherf et al.
# Submitted via: audiograbber 1.83.01
#
DISCID=a30b570e
DTITLE=Various Artist -  Hot Hits Country Volume 20
DYEAR=1900
DGENRE=
TTITLE0=Ricky Van Shelton - Wild Man
TTITLE1=Suzy Bogguss - Drive South
TTITLE2=Doug Stone - Too Busy Being In Love
TTITLE3=Billy Dean - Tryin' To Hide A Fire In The Dark
TTITLE4=George Jones - I Don't Need Your Rockin' Chair
TTITLE5=Mike Reid - Call Home
TTITLE6=Chris LeDoux - Cadillac Ranch
TTITLE7=Confederate Railroad - Queen Of Memphis
TTITLE8=Diamond Rio - In A Week Or Two
TTITLE9=Gibson Miller Band - Big Heart
TTITLE10=Mark Chesnutt - Ol' Country
TTITLE11=McBride and The Ride - Just One Night
TTITLE12=Marty Stuart - High On A Mountain Top
TTITLE13=Travis Tritt - Can I Trust You With My Heart
EXTD=
EXTT0=VanShelton - Ricky
EXTT1=Boggus - Suzy
EXTT2=Stone - Doug
EXTT3=Dean - Billy
EXTT4=Jones - George
EXTT5=Reid - Mike
EXTT6=LeDoux - Chris
EXTT7=Confederate Railroad
EXTT8=Diamond Rio
EXTT9=Gibson Miller Band
EXTT10=Chesnutt - Mark
EXTT11=McBride and The Ride
EXTT12=Stuart - Marty
EXTT13=Tritt - Travis
PLAYORDER=
